<mxfile host="app.diagrams.net" modified="2023-11-21T17:25:37.937Z" agent="Mozilla/5.0 (Windows NT 10.0; Win64; x64) AppleWebKit/537.36 (KHTML, like Gecko) Chrome/119.0.0.0 Safari/537.36" etag="D-FaTFEkFJm_TgFzkNnQ" version="22.1.3" type="github">
  <diagram name="Страница — 1" id="vOu0o8hy-bySBKN3KwOo">
    <mxGraphModel dx="1235" dy="628" grid="1" gridSize="10" guides="1" tooltips="1" connect="1" arrows="1" fold="1" page="0" pageScale="1" pageWidth="827" pageHeight="1169" math="0" shadow="0">
      <root>
        <mxCell id="0" />
        <mxCell id="1" parent="0" />
        <mxCell id="IKSSzgu__bxdgm__e2gg-1" value="API Gateway" style="rounded=0;whiteSpace=wrap;html=1;" parent="1" vertex="1">
          <mxGeometry x="130" y="150" width="150" height="100" as="geometry" />
        </mxCell>
        <mxCell id="IKSSzgu__bxdgm__e2gg-2" value="Actor" style="shape=umlActor;verticalLabelPosition=bottom;verticalAlign=top;html=1;outlineConnect=0;" parent="1" vertex="1">
          <mxGeometry x="40" y="160" width="30" height="60" as="geometry" />
        </mxCell>
        <mxCell id="IKSSzgu__bxdgm__e2gg-3" value="Auth server&lt;br&gt;(Keycloak)" style="rounded=0;whiteSpace=wrap;html=1;" parent="1" vertex="1">
          <mxGeometry x="130" y="290" width="150" height="100" as="geometry" />
        </mxCell>
        <mxCell id="IKSSzgu__bxdgm__e2gg-4" value="" style="endArrow=classic;html=1;rounded=0;exitX=0.5;exitY=1;exitDx=0;exitDy=0;entryX=0.5;entryY=0;entryDx=0;entryDy=0;" parent="1" source="IKSSzgu__bxdgm__e2gg-1" target="IKSSzgu__bxdgm__e2gg-3" edge="1">
          <mxGeometry width="50" height="50" relative="1" as="geometry">
            <mxPoint x="250" y="260" as="sourcePoint" />
            <mxPoint x="300" y="210" as="targetPoint" />
          </mxGeometry>
        </mxCell>
        <mxCell id="IKSSzgu__bxdgm__e2gg-5" value="Product Service&lt;br&gt;(mongoDB)" style="rounded=0;whiteSpace=wrap;html=1;" parent="1" vertex="1">
          <mxGeometry x="360" y="60" width="150" height="100" as="geometry" />
        </mxCell>
        <mxCell id="IKSSzgu__bxdgm__e2gg-6" value="" style="endArrow=classic;html=1;rounded=0;exitX=1;exitY=0.5;exitDx=0;exitDy=0;entryX=0;entryY=0.5;entryDx=0;entryDy=0;" parent="1" source="IKSSzgu__bxdgm__e2gg-1" target="IKSSzgu__bxdgm__e2gg-5" edge="1">
          <mxGeometry width="50" height="50" relative="1" as="geometry">
            <mxPoint x="450" y="280" as="sourcePoint" />
            <mxPoint x="500" y="230" as="targetPoint" />
          </mxGeometry>
        </mxCell>
        <mxCell id="IKSSzgu__bxdgm__e2gg-7" value="Product Service&lt;br&gt;(PostgreSQL)" style="rounded=0;whiteSpace=wrap;html=1;" parent="1" vertex="1">
          <mxGeometry x="360" y="240" width="150" height="100" as="geometry" />
        </mxCell>
        <mxCell id="IKSSzgu__bxdgm__e2gg-8" value="" style="endArrow=classic;html=1;rounded=0;exitX=1;exitY=0.5;exitDx=0;exitDy=0;entryX=-0.003;entryY=0.412;entryDx=0;entryDy=0;entryPerimeter=0;" parent="1" source="IKSSzgu__bxdgm__e2gg-1" target="IKSSzgu__bxdgm__e2gg-7" edge="1">
          <mxGeometry width="50" height="50" relative="1" as="geometry">
            <mxPoint x="290" y="210" as="sourcePoint" />
            <mxPoint x="370" y="120" as="targetPoint" />
          </mxGeometry>
        </mxCell>
        <mxCell id="IKSSzgu__bxdgm__e2gg-9" value="" style="endArrow=classic;html=1;rounded=0;entryX=0;entryY=0.5;entryDx=0;entryDy=0;" parent="1" target="IKSSzgu__bxdgm__e2gg-1" edge="1">
          <mxGeometry width="50" height="50" relative="1" as="geometry">
            <mxPoint x="80" y="200" as="sourcePoint" />
            <mxPoint x="500" y="230" as="targetPoint" />
          </mxGeometry>
        </mxCell>
        <mxCell id="7hVstTVYuaQDlgPIX78r-1" value="Notification Service" style="rounded=0;whiteSpace=wrap;html=1;" vertex="1" parent="1">
          <mxGeometry x="680" y="170" width="150" height="80" as="geometry" />
        </mxCell>
        <mxCell id="7hVstTVYuaQDlgPIX78r-2" value="Inventory Service&lt;br&gt;(PostgreSQL)" style="rounded=0;whiteSpace=wrap;html=1;" vertex="1" parent="1">
          <mxGeometry x="680" y="310" width="150" height="80" as="geometry" />
        </mxCell>
        <mxCell id="7hVstTVYuaQDlgPIX78r-3" value="" style="endArrow=classic;html=1;rounded=0;entryX=0;entryY=0.5;entryDx=0;entryDy=0;exitX=1;exitY=0.5;exitDx=0;exitDy=0;" edge="1" parent="1" source="IKSSzgu__bxdgm__e2gg-7" target="7hVstTVYuaQDlgPIX78r-1">
          <mxGeometry width="50" height="50" relative="1" as="geometry">
            <mxPoint x="490" y="240" as="sourcePoint" />
            <mxPoint x="540" y="190" as="targetPoint" />
          </mxGeometry>
        </mxCell>
        <mxCell id="7hVstTVYuaQDlgPIX78r-4" value="" style="endArrow=classic;html=1;rounded=0;entryX=0;entryY=0.5;entryDx=0;entryDy=0;exitX=1;exitY=0.5;exitDx=0;exitDy=0;" edge="1" parent="1" source="IKSSzgu__bxdgm__e2gg-7" target="7hVstTVYuaQDlgPIX78r-2">
          <mxGeometry width="50" height="50" relative="1" as="geometry">
            <mxPoint x="520" y="300" as="sourcePoint" />
            <mxPoint x="690" y="220" as="targetPoint" />
          </mxGeometry>
        </mxCell>
      </root>
    </mxGraphModel>
  </diagram>
</mxfile>
